<mxfile host="app.diagrams.net" modified="2023-08-23T16:03:29.274Z" agent="Mozilla/5.0 (Macintosh; Intel Mac OS X 10.15; rv:109.0) Gecko/20100101 Firefox/116.0" version="21.5.2" etag="CUHwbluwsGLgcgAfNRO_" type="github">
  <diagram name="Page-1" id="JPMn1DhRBIvgvre2qfAi">
    <mxGraphModel>
      <root>
        <mxCell id="0" />
        <mxCell id="1" parent="0" />
      </root>
    </mxGraphModel>
  </diagram>
</mxfile>
